<svg class="railroad-diagram" width="598" height="331" viewBox="0 0 598 331" xmlns="http://www.w3.org/2000/svg" xmlns:xlink="http://www.w3.org/1999/xlink">
<g transform="translate(.5 .5)">
<g>
<path d="M20 21v20m10 -20v20m-10 -10h20"></path>
</g>
<path d="M40 31h10"></path>
<g>
<path d="M50 31h0"></path>
<path d="M50 31h10"></path>
<g>
<path d="M60 31h204.75"></path>
<path d="M333.25 31h204.75"></path>
<path d="M264.75 31h20"></path>
<g class="terminal ">
<path d="M284.75 31h0"></path>
<path d="M313.25 31h0"></path>
<rect x="284.75" y="20" width="28.5" height="22" rx="10" ry="10"></rect>
<text x="299" y="35">#</text>
</g>
<path d="M313.25 31h20"></path>
<path d="M264.75 31a10 10 0 0 1 10 10v10a10 10 0 0 0 10 10"></path>
<g class="terminal ">
<path d="M284.75 61h0"></path>
<path d="M313.25 61h0"></path>
<rect x="284.75" y="50" width="28.5" height="22" rx="10" ry="10"></rect>
<text x="299" y="65">@</text>
</g>
<path d="M313.25 61a10 10 0 0 0 10 -10v-10a10 10 0 0 1 10 -10"></path>
</g>
<path d="M538 31a10 10 0 0 1 10 10v29a10 10 0 0 1 -10 10h-478a10 10 0 0 0 -10 10v0a10 10 0 0 0 10 10"></path>
<g>
<path d="M60 100h129.5"></path>
<path d="M408.5 100h129.5"></path>
<g class="non-terminal ">
<path d="M189.5 100h0"></path>
<path d="M226.5 100h0"></path>
<rect x="189.5" y="89" width="37" height="22"></rect>
<text x="208" y="104">WS</text>
</g>
<path d="M226.5 100h10"></path>
<path d="M236.5 100h10"></path>
<g class="non-terminal ">
<path d="M246.5 100h0"></path>
<path d="M351.5 100h0"></path>
<rect x="246.5" y="89" width="105" height="22"></rect>
<text x="299" y="104">Identifier</text>
</g>
<path d="M351.5 100h10"></path>
<path d="M361.5 100h10"></path>
<g class="non-terminal ">
<path d="M371.5 100h0"></path>
<path d="M408.5 100h0"></path>
<rect x="371.5" y="89" width="37" height="22"></rect>
<text x="390" y="104">WS</text>
</g>
</g>
<path d="M538 100a10 10 0 0 1 10 10v0a10 10 0 0 1 -10 10h-478a10 10 0 0 0 -10 10v16a10 10 0 0 0 10 10"></path>
<g>
<path d="M60 156h0"></path>
<path d="M538 156h0"></path>
<path d="M60 156a10 10 0 0 0 10 -10v-8a10 10 0 0 1 10 -10"></path>
<g>
<path d="M80 128h438"></path>
</g>
<path d="M518 128a10 10 0 0 1 10 10v8a10 10 0 0 0 10 10"></path>
<path d="M60 156h20"></path>
<g>
<path d="M80 156h0"></path>
<path d="M518 156h0"></path>
<path d="M80 156h20"></path>
<g>
<path d="M100 156h114.25"></path>
<path d="M383.75 156h114.25"></path>
<g class="terminal ">
<path d="M214.25 156h0"></path>
<path d="M242.75 156h0"></path>
<rect x="214.25" y="145" width="28.5" height="22" rx="10" ry="10"></rect>
<text x="228.5" y="160">-</text>
</g>
<path d="M242.75 156h10"></path>
<g>
<path d="M252.75 156h0"></path>
<path d="M383.75 156h0"></path>
<path d="M252.75 156a10 10 0 0 0 10 -10v0a10 10 0 0 1 10 -10"></path>
<g>
<path d="M272.75 136h91"></path>
</g>
<path d="M363.75 136a10 10 0 0 1 10 10v0a10 10 0 0 0 10 10"></path>
<path d="M252.75 156h20"></path>
<g>
<path d="M272.75 156h0"></path>
<path d="M363.75 156h0"></path>
<path d="M272.75 156h10"></path>
<g class="non-terminal ">
<path d="M282.75 156h0"></path>
<path d="M353.75 156h0"></path>
<rect x="282.75" y="145" width="71" height="22"></rect>
<text x="318.25" y="160">not \n</text>
</g>
<path d="M353.75 156h10"></path>
<path d="M282.75 156a10 10 0 0 0 -10 10v0a10 10 0 0 0 10 10"></path>
<g>
<path d="M282.75 176h71"></path>
</g>
<path d="M353.75 176a10 10 0 0 0 10 -10v0a10 10 0 0 0 -10 -10"></path>
</g>
<path d="M363.75 156h20"></path>
</g>
</g>
<path d="M498 156h20"></path>
<path d="M80 156a10 10 0 0 1 10 10v19a10 10 0 0 0 10 10"></path>
<g>
<path d="M100 195h0"></path>
<path d="M498 283h0"></path>
<path d="M100 195h10"></path>
<g>
<path d="M110 195h0"></path>
<path d="M110 195h10"></path>
<g class="non-terminal ">
<path d="M120 195h62.75"></path>
<path d="M415.25 195h62.75"></path>
<rect x="182.75" y="184" width="232.5" height="22"></rect>
<text x="299" y="199">WS without \n and Comment</text>
</g>
<path d="M478 195a10 10 0 0 1 10 10v0a10 10 0 0 1 -10 10h-358a10 10 0 0 0 -10 10v0a10 10 0 0 0 10 10"></path>
<g>
<path d="M120 235h10"></path>
<path d="M468 235h10"></path>
<g class="terminal ">
<path d="M130 235h0"></path>
<path d="M167 235h0"></path>
<rect x="130" y="224" width="37" height="22" rx="10" ry="10"></rect>
<text x="148.5" y="239">\n</text>
</g>
<path d="M167 235h10"></path>
<path d="M177 235h10"></path>
<g class="non-terminal ">
<path d="M187 235h0"></path>
<path d="M419.5 235h0"></path>
<rect x="187" y="224" width="232.5" height="22"></rect>
<text x="303.25" y="239">WS without \n and Comment</text>
</g>
<path d="M419.5 235h10"></path>
<path d="M429.5 235h10"></path>
<g class="terminal ">
<path d="M439.5 235h0"></path>
<path d="M468 235h0"></path>
<rect x="439.5" y="224" width="28.5" height="22" rx="10" ry="10"></rect>
<text x="453.75" y="239">|</text>
</g>
</g>
<path d="M478 235a10 10 0 0 1 10 10v0a10 10 0 0 1 -10 10h-358a10 10 0 0 0 -10 10v8a10 10 0 0 0 10 10"></path>
<g>
<path d="M120 283h113.5"></path>
<path d="M364.5 283h113.5"></path>
<path d="M233.5 283a10 10 0 0 0 10 -10v0a10 10 0 0 1 10 -10"></path>
<g>
<path d="M253.5 263h91"></path>
</g>
<path d="M344.5 263a10 10 0 0 1 10 10v0a10 10 0 0 0 10 10"></path>
<path d="M233.5 283h20"></path>
<g>
<path d="M253.5 283h0"></path>
<path d="M344.5 283h0"></path>
<path d="M253.5 283h10"></path>
<g class="non-terminal ">
<path d="M263.5 283h0"></path>
<path d="M334.5 283h0"></path>
<rect x="263.5" y="272" width="71" height="22"></rect>
<text x="299" y="287">not \n</text>
</g>
<path d="M334.5 283h10"></path>
<path d="M263.5 283a10 10 0 0 0 -10 10v0a10 10 0 0 0 10 10"></path>
<g>
<path d="M263.5 303h71"></path>
</g>
<path d="M334.5 303a10 10 0 0 0 10 -10v0a10 10 0 0 0 -10 -10"></path>
</g>
<path d="M344.5 283h20"></path>
</g>
<path d="M478 283h10"></path>
<path d="M488 283h0"></path>
</g>
<path d="M488 283h10"></path>
<path d="M110 195a10 10 0 0 0 -10 10v96a10 10 0 0 0 10 10"></path>
<g>
<path d="M110 311h378"></path>
</g>
<path d="M488 311a10 10 0 0 0 10 -10v-8a10 10 0 0 0 -10 -10"></path>
</g>
<path d="M498 283a10 10 0 0 0 10 -10v-107a10 10 0 0 1 10 -10"></path>
</g>
<path d="M518 156h20"></path>
</g>
<path d="M538 156h10"></path>
<path d="M548 156h0"></path>
</g>
<path d="M548 156h10"></path>
<path d="M 558 156 h 20 m -10 -10 v 20 m 10 -20 v 20"></path>
</g>
<style>
	svg {
		background-color: hsl(30,20%,95%);
	}
	path {
		stroke-width: 3;
		stroke: black;
		fill: rgba(0,0,0,0);
	}
	text {
		font: bold 14px monospace;
		text-anchor: middle;
		white-space: pre;
	}
	text.diagram-text {
		font-size: 12px;
	}
	text.diagram-arrow {
		font-size: 16px;
	}
	text.label {
		text-anchor: start;
	}
	text.comment {
		font: italic 12px monospace;
	}
	g.non-terminal text {
		/&#42;font-style: italic;&#42;/
	}
	rect {
		stroke-width: 3;
		stroke: black;
		fill: hsl(120,100%,90%);
	}
	rect.group-box {
		stroke: gray;
		stroke-dasharray: 10 5;
		fill: none;
	}
	path.diagram-text {
		stroke-width: 3;
		stroke: black;
		fill: white;
		cursor: help;
	}
	g.diagram-text:hover path.diagram-text {
		fill: #eee;
	}</style>
</svg>
