<svg class="railroad-diagram" width="361.5" height="109" viewBox="0 0 361.5 109" xmlns="http://www.w3.org/2000/svg" xmlns:xlink="http://www.w3.org/1999/xlink">
<g transform="translate(.5 .5)">
<g>
<path d="M20 59v20m10 -20v20m-10 -10h20"></path>
</g>
<g>
<path d="M40 69h0"></path>
<path d="M321.5 69h0"></path>
<path d="M40 69a10 10 0 0 0 10 -10v-29a10 10 0 0 1 10 -10"></path>
<g>
<path d="M60 20h241.5"></path>
</g>
<path d="M301.5 20a10 10 0 0 1 10 10v29a10 10 0 0 0 10 10"></path>
<path d="M40 69h20"></path>
<g>
<path d="M60 69h0"></path>
<path d="M301.5 69h0"></path>
<path d="M60 69h10"></path>
<g>
<path d="M70 69h0"></path>
<path d="M291.5 69h0"></path>
<path d="M70 69a10 10 0 0 0 10 -10v-10a10 10 0 0 1 10 -10"></path>
<g class="non-terminal ">
<path d="M90 39h72.25"></path>
<path d="M199.25 39h72.25"></path>
<rect x="162.25" y="28" width="37" height="22"></rect>
<text x="180.75" y="43">WS</text>
</g>
<path d="M271.5 39a10 10 0 0 1 10 10v10a10 10 0 0 0 10 10"></path>
<path d="M70 69h20"></path>
<g class="non-terminal ">
<path d="M90 69h0"></path>
<path d="M271.5 69h0"></path>
<rect x="90" y="58" width="181.5" height="22"></rect>
<text x="180.75" y="73">Top Level Statement</text>
</g>
<path d="M271.5 69h20"></path>
</g>
<path d="M291.5 69h10"></path>
<path d="M70 69a10 10 0 0 0 -10 10v0a10 10 0 0 0 10 10"></path>
<g>
<path d="M70 89h221.5"></path>
</g>
<path d="M291.5 89a10 10 0 0 0 10 -10v0a10 10 0 0 0 -10 -10"></path>
</g>
<path d="M301.5 69h20"></path>
</g>
<path d="M 321.5 69 h 20 m -10 -10 v 20 m 10 -20 v 20"></path>
</g>
<style>
	svg {
		background-color: hsl(30,20%,95%);
	}
	path {
		stroke-width: 3;
		stroke: black;
		fill: rgba(0,0,0,0);
	}
	text {
		font: bold 14px monospace;
		text-anchor: middle;
		white-space: pre;
	}
	text.diagram-text {
		font-size: 12px;
	}
	text.diagram-arrow {
		font-size: 16px;
	}
	text.label {
		text-anchor: start;
	}
	text.comment {
		font: italic 12px monospace;
	}
	g.non-terminal text {
		/&#42;font-style: italic;&#42;/
	}
	rect {
		stroke-width: 3;
		stroke: black;
		fill: hsl(120,100%,90%);
	}
	rect.group-box {
		stroke: gray;
		stroke-dasharray: 10 5;
		fill: none;
	}
	path.diagram-text {
		stroke-width: 3;
		stroke: black;
		fill: white;
		cursor: help;
	}
	g.diagram-text:hover path.diagram-text {
		fill: #eee;
	}</style>
</svg>
