<svg class="railroad-diagram" width="683" height="62" viewBox="0 0 683 62" xmlns="http://www.w3.org/2000/svg" xmlns:xlink="http://www.w3.org/1999/xlink">
<g transform="translate(.5 .5)">
<g>
<path d="M20 21v20m10 -20v20m-10 -10h20"></path>
</g>
<path d="M40 31h10"></path>
<g>
<path d="M50 31h0"></path>
<path d="M633 31h0"></path>
<g class="terminal ">
<path d="M50 31h0"></path>
<path d="M121 31h0"></path>
<rect x="50" y="20" width="71" height="22" rx="10" ry="10"></rect>
<text x="85.5" y="35">custom</text>
</g>
<path d="M121 31h10"></path>
<path d="M131 31h10"></path>
<g class="non-terminal ">
<path d="M141 31h0"></path>
<path d="M178 31h0"></path>
<rect x="141" y="20" width="37" height="22"></rect>
<text x="159.5" y="35">WS</text>
</g>
<path d="M178 31h10"></path>
<path d="M188 31h10"></path>
<g class="non-terminal ">
<path d="M198 31h0"></path>
<path d="M303 31h0"></path>
<rect x="198" y="20" width="105" height="22"></rect>
<text x="250.5" y="35">Identifier</text>
</g>
<path d="M303 31h10"></path>
<path d="M313 31h10"></path>
<g class="non-terminal ">
<path d="M323 31h0"></path>
<path d="M360 31h0"></path>
<rect x="323" y="20" width="37" height="22"></rect>
<text x="341.5" y="35">WS</text>
</g>
<path d="M360 31h10"></path>
<path d="M370 31h10"></path>
<g class="terminal ">
<path d="M380 31h0"></path>
<path d="M408.5 31h0"></path>
<rect x="380" y="20" width="28.5" height="22" rx="10" ry="10"></rect>
<text x="394.25" y="35">=</text>
</g>
<path d="M408.5 31h10"></path>
<path d="M418.5 31h10"></path>
<g class="non-terminal ">
<path d="M428.5 31h0"></path>
<path d="M465.5 31h0"></path>
<rect x="428.5" y="20" width="37" height="22"></rect>
<text x="447" y="35">WS</text>
</g>
<path d="M465.5 31h10"></path>
<path d="M475.5 31h10"></path>
<g class="non-terminal ">
<path d="M485.5 31h0"></path>
<path d="M633 31h0"></path>
<rect x="485.5" y="20" width="147.5" height="22"></rect>
<text x="559.25" y="35">Type Expression</text>
</g>
</g>
<path d="M633 31h10"></path>
<path d="M 643 31 h 20 m -10 -10 v 20 m 10 -20 v 20"></path>
</g>
<style>
	svg {
		background-color: hsl(30,20%,95%);
	}
	path {
		stroke-width: 3;
		stroke: black;
		fill: rgba(0,0,0,0);
	}
	text {
		font: bold 14px monospace;
		text-anchor: middle;
		white-space: pre;
	}
	text.diagram-text {
		font-size: 12px;
	}
	text.diagram-arrow {
		font-size: 16px;
	}
	text.label {
		text-anchor: start;
	}
	text.comment {
		font: italic 12px monospace;
	}
	g.non-terminal text {
		/&#42;font-style: italic;&#42;/
	}
	rect {
		stroke-width: 3;
		stroke: black;
		fill: hsl(120,100%,90%);
	}
	rect.group-box {
		stroke: gray;
		stroke-dasharray: 10 5;
		fill: none;
	}
	path.diagram-text {
		stroke-width: 3;
		stroke: black;
		fill: white;
		cursor: help;
	}
	g.diagram-text:hover path.diagram-text {
		fill: #eee;
	}</style>
</svg>
