<svg class="railroad-diagram" width="450" height="102" viewBox="0 0 450 102" xmlns="http://www.w3.org/2000/svg" xmlns:xlink="http://www.w3.org/1999/xlink">
<g transform="translate(.5 .5)">
<g>
<path d="M20 21v20m10 -20v20m-10 -10h20"></path>
</g>
<path d="M40 31h10"></path>
<g>
<path d="M50 31h0"></path>
<path d="M50 31h10"></path>
<g>
<path d="M60 31h10"></path>
<path d="M380 31h10"></path>
<g class="terminal ">
<path d="M70 31h0"></path>
<path d="M141 31h0"></path>
<rect x="70" y="20" width="71" height="22" rx="10" ry="10"></rect>
<text x="105.5" y="35">custom</text>
</g>
<path d="M141 31h10"></path>
<path d="M151 31h10"></path>
<g class="non-terminal ">
<path d="M161 31h0"></path>
<path d="M198 31h0"></path>
<rect x="161" y="20" width="37" height="22"></rect>
<text x="179.5" y="35">WS</text>
</g>
<path d="M198 31h10"></path>
<path d="M208 31h10"></path>
<g class="non-terminal ">
<path d="M218 31h0"></path>
<path d="M323 31h0"></path>
<rect x="218" y="20" width="105" height="22"></rect>
<text x="270.5" y="35">Identifier</text>
</g>
<path d="M323 31h10"></path>
<path d="M333 31h10"></path>
<g class="non-terminal ">
<path d="M343 31h0"></path>
<path d="M380 31h0"></path>
<rect x="343" y="20" width="37" height="22"></rect>
<text x="361.5" y="35">WS</text>
</g>
</g>
<path d="M390 31a10 10 0 0 1 10 10v0a10 10 0 0 1 -10 10h-330a10 10 0 0 0 -10 10v0a10 10 0 0 0 10 10"></path>
<g>
<path d="M60 71h38.5"></path>
<path d="M351.5 71h38.5"></path>
<g class="terminal ">
<path d="M98.5 71h0"></path>
<path d="M127 71h0"></path>
<rect x="98.5" y="60" width="28.5" height="22" rx="10" ry="10"></rect>
<text x="112.75" y="75">=</text>
</g>
<path d="M127 71h10"></path>
<path d="M137 71h10"></path>
<g class="non-terminal ">
<path d="M147 71h0"></path>
<path d="M184 71h0"></path>
<rect x="147" y="60" width="37" height="22"></rect>
<text x="165.5" y="75">WS</text>
</g>
<path d="M184 71h10"></path>
<path d="M194 71h10"></path>
<g class="non-terminal ">
<path d="M204 71h0"></path>
<path d="M351.5 71h0"></path>
<rect x="204" y="60" width="147.5" height="22"></rect>
<text x="277.75" y="75">Type Expression</text>
</g>
</g>
<path d="M390 71h10"></path>
<path d="M400 71h0"></path>
</g>
<path d="M400 71h10"></path>
<path d="M 410 71 h 20 m -10 -10 v 20 m 10 -20 v 20"></path>
</g>
<style>
	svg {
		background-color: hsl(30,20%,95%);
	}
	path {
		stroke-width: 3;
		stroke: black;
		fill: rgba(0,0,0,0);
	}
	text {
		font: bold 14px monospace;
		text-anchor: middle;
		white-space: pre;
	}
	text.diagram-text {
		font-size: 12px;
	}
	text.diagram-arrow {
		font-size: 16px;
	}
	text.label {
		text-anchor: start;
	}
	text.comment {
		font: italic 12px monospace;
	}
	g.non-terminal text {
		/&#42;font-style: italic;&#42;/
	}
	rect {
		stroke-width: 3;
		stroke: black;
		fill: hsl(120,100%,90%);
	}
	rect.group-box {
		stroke: gray;
		stroke-dasharray: 10 5;
		fill: none;
	}
	path.diagram-text {
		stroke-width: 3;
		stroke: black;
		fill: white;
		cursor: help;
	}
	g.diagram-text:hover path.diagram-text {
		fill: #eee;
	}</style>
</svg>
