<svg class="railroad-diagram" width="557.5" height="187" viewBox="0 0 557.5 187" xmlns="http://www.w3.org/2000/svg" xmlns:xlink="http://www.w3.org/1999/xlink">
<g transform="translate(.5 .5)">
<g>
<path d="M20 21v20m10 -20v20m-10 -10h20"></path>
</g>
<path d="M40 31h10"></path>
<g>
<path d="M50 31h0"></path>
<path d="M50 31h10"></path>
<g>
<path d="M60 31h72.25"></path>
<path d="M425.25 31h72.25"></path>
<g class="terminal ">
<path d="M132.25 31h0"></path>
<path d="M186.25 31h0"></path>
<rect x="132.25" y="20" width="54" height="22" rx="10" ry="10"></rect>
<text x="159.25" y="35">enum</text>
</g>
<path d="M186.25 31h10"></path>
<path d="M196.25 31h10"></path>
<g class="non-terminal ">
<path d="M206.25 31h0"></path>
<path d="M243.25 31h0"></path>
<rect x="206.25" y="20" width="37" height="22"></rect>
<text x="224.75" y="35">WS</text>
</g>
<path d="M243.25 31h10"></path>
<path d="M253.25 31h10"></path>
<g class="non-terminal ">
<path d="M263.25 31h0"></path>
<path d="M368.25 31h0"></path>
<rect x="263.25" y="20" width="105" height="22"></rect>
<text x="315.75" y="35">Identifier</text>
</g>
<path d="M368.25 31h10"></path>
<path d="M378.25 31h10"></path>
<g class="non-terminal ">
<path d="M388.25 31h0"></path>
<path d="M425.25 31h0"></path>
<rect x="388.25" y="20" width="37" height="22"></rect>
<text x="406.75" y="35">WS</text>
</g>
</g>
<path d="M497.5 31a10 10 0 0 1 10 10v0a10 10 0 0 1 -10 10h-437.5a10 10 0 0 0 -10 10v8a10 10 0 0 0 10 10"></path>
<g>
<path d="M60 79h10"></path>
<path d="M487.5 79h10"></path>
<g class="terminal ">
<path d="M70 79h0"></path>
<path d="M98.5 79h0"></path>
<rect x="70" y="68" width="28.5" height="22" rx="10" ry="10"></rect>
<text x="84.25" y="83">{</text>
</g>
<path d="M98.5 79h10"></path>
<g>
<path d="M108.5 79h0"></path>
<path d="M449 79h0"></path>
<path d="M108.5 79a10 10 0 0 0 10 -10v0a10 10 0 0 1 10 -10"></path>
<g>
<path d="M128.5 59h300.5"></path>
</g>
<path d="M429 59a10 10 0 0 1 10 10v0a10 10 0 0 0 10 10"></path>
<path d="M108.5 79h20"></path>
<g>
<path d="M128.5 79h0"></path>
<path d="M429 79h0"></path>
<path d="M128.5 79h10"></path>
<g>
<path d="M138.5 79h0"></path>
<path d="M419 79h0"></path>
<path d="M138.5 79h20"></path>
<g class="non-terminal ">
<path d="M158.5 79h101.75"></path>
<path d="M297.25 79h101.75"></path>
<rect x="260.25" y="68" width="37" height="22"></rect>
<text x="278.75" y="83">WS</text>
</g>
<path d="M399 79h20"></path>
<path d="M138.5 79a10 10 0 0 1 10 10v10a10 10 0 0 0 10 10"></path>
<g class="non-terminal ">
<path d="M158.5 109h72"></path>
<path d="M327 109h72"></path>
<rect x="230.5" y="98" width="96.5" height="22"></rect>
<text x="278.75" y="113">Attribute</text>
</g>
<path d="M399 109a10 10 0 0 0 10 -10v-10a10 10 0 0 1 10 -10"></path>
<path d="M138.5 79a10 10 0 0 1 10 10v49a10 10 0 0 0 10 10"></path>
<g>
<path d="M158.5 148h0"></path>
<path d="M399 148h0"></path>
<g class="non-terminal ">
<path d="M158.5 148h0"></path>
<path d="M263.5 148h0"></path>
<rect x="158.5" y="137" width="105" height="22"></rect>
<text x="211" y="152">Identifier</text>
</g>
<path d="M263.5 148h10"></path>
<path d="M273.5 148h10"></path>
<g class="non-terminal ">
<path d="M283.5 148h0"></path>
<path d="M320.5 148h0"></path>
<rect x="283.5" y="137" width="37" height="22"></rect>
<text x="302" y="152">WS</text>
</g>
<path d="M320.5 148h10"></path>
<g>
<path d="M330.5 148h0"></path>
<path d="M399 148h0"></path>
<path d="M330.5 148a10 10 0 0 0 10 -10v0a10 10 0 0 1 10 -10"></path>
<g>
<path d="M350.5 128h28.5"></path>
</g>
<path d="M379 128a10 10 0 0 1 10 10v0a10 10 0 0 0 10 10"></path>
<path d="M330.5 148h20"></path>
<g class="terminal ">
<path d="M350.5 148h0"></path>
<path d="M379 148h0"></path>
<rect x="350.5" y="137" width="28.5" height="22" rx="10" ry="10"></rect>
<text x="364.75" y="152">,</text>
</g>
<path d="M379 148h20"></path>
</g>
</g>
<path d="M399 148a10 10 0 0 0 10 -10v-49a10 10 0 0 1 10 -10"></path>
</g>
<path d="M419 79h10"></path>
<path d="M138.5 79a10 10 0 0 0 -10 10v68a10 10 0 0 0 10 10"></path>
<g>
<path d="M138.5 167h280.5"></path>
</g>
<path d="M419 167a10 10 0 0 0 10 -10v-68a10 10 0 0 0 -10 -10"></path>
</g>
<path d="M429 79h20"></path>
</g>
<path d="M449 79h10"></path>
<g class="terminal ">
<path d="M459 79h0"></path>
<path d="M487.5 79h0"></path>
<rect x="459" y="68" width="28.5" height="22" rx="10" ry="10"></rect>
<text x="473.25" y="83">}</text>
</g>
</g>
<path d="M497.5 79h10"></path>
<path d="M507.5 79h0"></path>
</g>
<path d="M507.5 79h10"></path>
<path d="M 517.5 79 h 20 m -10 -10 v 20 m 10 -20 v 20"></path>
</g>
<style>
	svg {
		background-color: hsl(30,20%,95%);
	}
	path {
		stroke-width: 3;
		stroke: black;
		fill: rgba(0,0,0,0);
	}
	text {
		font: bold 14px monospace;
		text-anchor: middle;
		white-space: pre;
	}
	text.diagram-text {
		font-size: 12px;
	}
	text.diagram-arrow {
		font-size: 16px;
	}
	text.label {
		text-anchor: start;
	}
	text.comment {
		font: italic 12px monospace;
	}
	g.non-terminal text {
		/&#42;font-style: italic;&#42;/
	}
	rect {
		stroke-width: 3;
		stroke: black;
		fill: hsl(120,100%,90%);
	}
	rect.group-box {
		stroke: gray;
		stroke-dasharray: 10 5;
		fill: none;
	}
	path.diagram-text {
		stroke-width: 3;
		stroke: black;
		fill: white;
		cursor: help;
	}
	g.diagram-text:hover path.diagram-text {
		fill: #eee;
	}</style>
</svg>
