<svg class="railroad-diagram" width="362" height="169" viewBox="0 0 362 169" xmlns="http://www.w3.org/2000/svg" xmlns:xlink="http://www.w3.org/1999/xlink">
<g transform="translate(.5 .5)">
<g>
<path d="M20 30v20m10 -20v20m-10 -10h20"></path>
</g>
<g>
<path d="M40 40h0"></path>
<path d="M151 40h0"></path>
<path d="M40 40h20"></path>
<g class="terminal ">
<path d="M60 40h21.25"></path>
<path d="M109.75 40h21.25"></path>
<rect x="81.25" y="29" width="28.5" height="22" rx="10" ry="10"></rect>
<text x="95.5" y="44">&#95;</text>
</g>
<path d="M131 40h20"></path>
<path d="M40 40a10 10 0 0 1 10 10v10a10 10 0 0 0 10 10"></path>
<g class="non-terminal ">
<path d="M60 70h0"></path>
<path d="M131 70h0"></path>
<rect x="60" y="59" width="71" height="22"></rect>
<text x="95.5" y="74">a to z</text>
</g>
<path d="M131 70a10 10 0 0 0 10 -10v-10a10 10 0 0 1 10 -10"></path>
<path d="M40 40a10 10 0 0 1 10 10v40a10 10 0 0 0 10 10"></path>
<g class="non-terminal ">
<path d="M60 100h0"></path>
<path d="M131 100h0"></path>
<rect x="60" y="89" width="71" height="22"></rect>
<text x="95.5" y="104">A to Z</text>
</g>
<path d="M131 100a10 10 0 0 0 10 -10v-40a10 10 0 0 1 10 -10"></path>
</g>
<g>
<path d="M151 40h0"></path>
<path d="M322 40h0"></path>
<path d="M151 40a10 10 0 0 0 10 -10v0a10 10 0 0 1 10 -10"></path>
<g>
<path d="M171 20h131"></path>
</g>
<path d="M302 20a10 10 0 0 1 10 10v0a10 10 0 0 0 10 10"></path>
<path d="M151 40h20"></path>
<g>
<path d="M171 40h0"></path>
<path d="M302 40h0"></path>
<path d="M171 40h10"></path>
<g>
<path d="M181 40h0"></path>
<path d="M292 40h0"></path>
<path d="M181 40h20"></path>
<g class="terminal ">
<path d="M201 40h21.25"></path>
<path d="M250.75 40h21.25"></path>
<rect x="222.25" y="29" width="28.5" height="22" rx="10" ry="10"></rect>
<text x="236.5" y="44">&#95;</text>
</g>
<path d="M272 40h20"></path>
<path d="M181 40a10 10 0 0 1 10 10v10a10 10 0 0 0 10 10"></path>
<g class="non-terminal ">
<path d="M201 70h0"></path>
<path d="M272 70h0"></path>
<rect x="201" y="59" width="71" height="22"></rect>
<text x="236.5" y="74">a to z</text>
</g>
<path d="M272 70a10 10 0 0 0 10 -10v-10a10 10 0 0 1 10 -10"></path>
<path d="M181 40a10 10 0 0 1 10 10v40a10 10 0 0 0 10 10"></path>
<g class="non-terminal ">
<path d="M201 100h0"></path>
<path d="M272 100h0"></path>
<rect x="201" y="89" width="71" height="22"></rect>
<text x="236.5" y="104">A to Z</text>
</g>
<path d="M272 100a10 10 0 0 0 10 -10v-40a10 10 0 0 1 10 -10"></path>
<path d="M181 40a10 10 0 0 1 10 10v70a10 10 0 0 0 10 10"></path>
<g class="non-terminal ">
<path d="M201 130h0"></path>
<path d="M272 130h0"></path>
<rect x="201" y="119" width="71" height="22"></rect>
<text x="236.5" y="134">0 to 9</text>
</g>
<path d="M272 130a10 10 0 0 0 10 -10v-70a10 10 0 0 1 10 -10"></path>
</g>
<path d="M292 40h10"></path>
<path d="M181 40a10 10 0 0 0 -10 10v89a10 10 0 0 0 10 10"></path>
<g>
<path d="M181 149h111"></path>
</g>
<path d="M292 149a10 10 0 0 0 10 -10v-89a10 10 0 0 0 -10 -10"></path>
</g>
<path d="M302 40h20"></path>
</g>
<path d="M 322 40 h 20 m -10 -10 v 20 m 10 -20 v 20"></path>
</g>
<style>
	svg {
		background-color: hsl(30,20%,95%);
	}
	path {
		stroke-width: 3;
		stroke: black;
		fill: rgba(0,0,0,0);
	}
	text {
		font: bold 14px monospace;
		text-anchor: middle;
		white-space: pre;
	}
	text.diagram-text {
		font-size: 12px;
	}
	text.diagram-arrow {
		font-size: 16px;
	}
	text.label {
		text-anchor: start;
	}
	text.comment {
		font: italic 12px monospace;
	}
	g.non-terminal text {
		/&#42;font-style: italic;&#42;/
	}
	rect {
		stroke-width: 3;
		stroke: black;
		fill: hsl(120,100%,90%);
	}
	rect.group-box {
		stroke: gray;
		stroke-dasharray: 10 5;
		fill: none;
	}
	path.diagram-text {
		stroke-width: 3;
		stroke: black;
		fill: white;
		cursor: help;
	}
	g.diagram-text:hover path.diagram-text {
		fill: #eee;
	}</style>
</svg>
