<svg class="railroad-diagram" width="600" height="187" viewBox="0 0 600 187" xmlns="http://www.w3.org/2000/svg" xmlns:xlink="http://www.w3.org/1999/xlink">
<g transform="translate(.5 .5)">
<g>
<path d="M20 21v20m10 -20v20m-10 -10h20"></path>
</g>
<path d="M40 31h10"></path>
<g>
<path d="M50 31h0"></path>
<path d="M50 31h10"></path>
<g>
<path d="M60 31h89.25"></path>
<path d="M450.75 31h89.25"></path>
<g class="terminal ">
<path d="M149.25 31h0"></path>
<path d="M211.75 31h0"></path>
<rect x="149.25" y="20" width="62.5" height="22" rx="10" ry="10"></rect>
<text x="180.5" y="35">oneof</text>
</g>
<path d="M211.75 31h10"></path>
<path d="M221.75 31h10"></path>
<g class="non-terminal ">
<path d="M231.75 31h0"></path>
<path d="M268.75 31h0"></path>
<rect x="231.75" y="20" width="37" height="22"></rect>
<text x="250.25" y="35">WS</text>
</g>
<path d="M268.75 31h10"></path>
<path d="M278.75 31h10"></path>
<g class="non-terminal ">
<path d="M288.75 31h0"></path>
<path d="M393.75 31h0"></path>
<rect x="288.75" y="20" width="105" height="22"></rect>
<text x="341.25" y="35">Identifier</text>
</g>
<path d="M393.75 31h10"></path>
<path d="M403.75 31h10"></path>
<g class="non-terminal ">
<path d="M413.75 31h0"></path>
<path d="M450.75 31h0"></path>
<rect x="413.75" y="20" width="37" height="22"></rect>
<text x="432.25" y="35">WS</text>
</g>
</g>
<path d="M540 31a10 10 0 0 1 10 10v0a10 10 0 0 1 -10 10h-480a10 10 0 0 0 -10 10v8a10 10 0 0 0 10 10"></path>
<g>
<path d="M60 79h10"></path>
<path d="M530 79h10"></path>
<g class="terminal ">
<path d="M70 79h0"></path>
<path d="M98.5 79h0"></path>
<rect x="70" y="68" width="28.5" height="22" rx="10" ry="10"></rect>
<text x="84.25" y="83">{</text>
</g>
<path d="M98.5 79h10"></path>
<g>
<path d="M108.5 79h0"></path>
<path d="M491.5 79h0"></path>
<path d="M108.5 79a10 10 0 0 0 10 -10v0a10 10 0 0 1 10 -10"></path>
<g>
<path d="M128.5 59h343"></path>
</g>
<path d="M471.5 59a10 10 0 0 1 10 10v0a10 10 0 0 0 10 10"></path>
<path d="M108.5 79h20"></path>
<g>
<path d="M128.5 79h0"></path>
<path d="M471.5 79h0"></path>
<path d="M128.5 79h10"></path>
<g>
<path d="M138.5 79h0"></path>
<path d="M461.5 79h0"></path>
<path d="M138.5 79h20"></path>
<g class="non-terminal ">
<path d="M158.5 79h123"></path>
<path d="M318.5 79h123"></path>
<rect x="281.5" y="68" width="37" height="22"></rect>
<text x="300" y="83">WS</text>
</g>
<path d="M441.5 79h20"></path>
<path d="M138.5 79a10 10 0 0 1 10 10v10a10 10 0 0 0 10 10"></path>
<g class="non-terminal ">
<path d="M158.5 109h93.25"></path>
<path d="M348.25 109h93.25"></path>
<rect x="251.75" y="98" width="96.5" height="22"></rect>
<text x="300" y="113">Attribute</text>
</g>
<path d="M441.5 109a10 10 0 0 0 10 -10v-10a10 10 0 0 1 10 -10"></path>
<path d="M138.5 79a10 10 0 0 1 10 10v49a10 10 0 0 0 10 10"></path>
<g>
<path d="M158.5 148h0"></path>
<path d="M441.5 148h0"></path>
<g class="non-terminal ">
<path d="M158.5 148h0"></path>
<path d="M306 148h0"></path>
<rect x="158.5" y="137" width="147.5" height="22"></rect>
<text x="232.25" y="152">Type Expression</text>
</g>
<path d="M306 148h10"></path>
<path d="M316 148h10"></path>
<g class="non-terminal ">
<path d="M326 148h0"></path>
<path d="M363 148h0"></path>
<rect x="326" y="137" width="37" height="22"></rect>
<text x="344.5" y="152">WS</text>
</g>
<path d="M363 148h10"></path>
<g>
<path d="M373 148h0"></path>
<path d="M441.5 148h0"></path>
<path d="M373 148a10 10 0 0 0 10 -10v0a10 10 0 0 1 10 -10"></path>
<g>
<path d="M393 128h28.5"></path>
</g>
<path d="M421.5 128a10 10 0 0 1 10 10v0a10 10 0 0 0 10 10"></path>
<path d="M373 148h20"></path>
<g class="terminal ">
<path d="M393 148h0"></path>
<path d="M421.5 148h0"></path>
<rect x="393" y="137" width="28.5" height="22" rx="10" ry="10"></rect>
<text x="407.25" y="152">,</text>
</g>
<path d="M421.5 148h20"></path>
</g>
</g>
<path d="M441.5 148a10 10 0 0 0 10 -10v-49a10 10 0 0 1 10 -10"></path>
</g>
<path d="M461.5 79h10"></path>
<path d="M138.5 79a10 10 0 0 0 -10 10v68a10 10 0 0 0 10 10"></path>
<g>
<path d="M138.5 167h323"></path>
</g>
<path d="M461.5 167a10 10 0 0 0 10 -10v-68a10 10 0 0 0 -10 -10"></path>
</g>
<path d="M471.5 79h20"></path>
</g>
<path d="M491.5 79h10"></path>
<g class="terminal ">
<path d="M501.5 79h0"></path>
<path d="M530 79h0"></path>
<rect x="501.5" y="68" width="28.5" height="22" rx="10" ry="10"></rect>
<text x="515.75" y="83">}</text>
</g>
</g>
<path d="M540 79h10"></path>
<path d="M550 79h0"></path>
</g>
<path d="M550 79h10"></path>
<path d="M 560 79 h 20 m -10 -10 v 20 m 10 -20 v 20"></path>
</g>
<style>
	svg {
		background-color: hsl(30,20%,95%);
	}
	path {
		stroke-width: 3;
		stroke: black;
		fill: rgba(0,0,0,0);
	}
	text {
		font: bold 14px monospace;
		text-anchor: middle;
		white-space: pre;
	}
	text.diagram-text {
		font-size: 12px;
	}
	text.diagram-arrow {
		font-size: 16px;
	}
	text.label {
		text-anchor: start;
	}
	text.comment {
		font: italic 12px monospace;
	}
	g.non-terminal text {
		/&#42;font-style: italic;&#42;/
	}
	rect {
		stroke-width: 3;
		stroke: black;
		fill: hsl(120,100%,90%);
	}
	rect.group-box {
		stroke: gray;
		stroke-dasharray: 10 5;
		fill: none;
	}
	path.diagram-text {
		stroke-width: 3;
		stroke: black;
		fill: white;
		cursor: help;
	}
	g.diagram-text:hover path.diagram-text {
		fill: #eee;
	}</style>
</svg>
