<svg class="railroad-diagram" width="512.5" height="190" viewBox="0 0 512.5 190" xmlns="http://www.w3.org/2000/svg" xmlns:xlink="http://www.w3.org/1999/xlink">
<g transform="translate(.5 .5)">
<g>
<path d="M20 21v20m10 -20v20m-10 -10h20"></path>
</g>
<path d="M40 31h10"></path>
<g>
<path d="M50 31h0"></path>
<path d="M50 31h10"></path>
<g>
<path d="M60 31h78.25"></path>
<path d="M374.25 31h78.25"></path>
<g class="terminal ">
<path d="M138.25 31h0"></path>
<path d="M192.25 31h0"></path>
<rect x="138.25" y="20" width="54" height="22" rx="10" ry="10"></rect>
<text x="165.25" y="35">proc</text>
</g>
<path d="M192.25 31h10"></path>
<path d="M202.25 31h10"></path>
<g class="non-terminal ">
<path d="M212.25 31h0"></path>
<path d="M249.25 31h0"></path>
<rect x="212.25" y="20" width="37" height="22"></rect>
<text x="230.75" y="35">WS</text>
</g>
<path d="M249.25 31h10"></path>
<path d="M259.25 31h10"></path>
<g class="non-terminal ">
<path d="M269.25 31h0"></path>
<path d="M374.25 31h0"></path>
<rect x="269.25" y="20" width="105" height="22"></rect>
<text x="321.75" y="35">Identifier</text>
</g>
</g>
<path d="M452.5 31a10 10 0 0 1 10 10v0a10 10 0 0 1 -10 10h-392.5a10 10 0 0 0 -10 10v0a10 10 0 0 0 10 10"></path>
<g>
<path d="M60 71h41.25"></path>
<path d="M411.25 71h41.25"></path>
<g class="non-terminal ">
<path d="M101.25 71h0"></path>
<path d="M138.25 71h0"></path>
<rect x="101.25" y="60" width="37" height="22"></rect>
<text x="119.75" y="75">WS</text>
</g>
<path d="M138.25 71h10"></path>
<path d="M148.25 71h10"></path>
<g class="terminal ">
<path d="M158.25 71h0"></path>
<path d="M186.75 71h0"></path>
<rect x="158.25" y="60" width="28.5" height="22" rx="10" ry="10"></rect>
<text x="172.5" y="75">=</text>
</g>
<path d="M186.75 71h10"></path>
<path d="M196.75 71h10"></path>
<g class="non-terminal ">
<path d="M206.75 71h0"></path>
<path d="M243.75 71h0"></path>
<rect x="206.75" y="60" width="37" height="22"></rect>
<text x="225.25" y="75">WS</text>
</g>
<path d="M243.75 71h10"></path>
<path d="M253.75 71h10"></path>
<g class="non-terminal ">
<path d="M263.75 71h0"></path>
<path d="M411.25 71h0"></path>
<rect x="263.75" y="60" width="147.5" height="22"></rect>
<text x="337.5" y="75">Type Expression</text>
</g>
</g>
<path d="M452.5 71a10 10 0 0 1 10 10v0a10 10 0 0 1 -10 10h-392.5a10 10 0 0 0 -10 10v0a10 10 0 0 0 10 10"></path>
<g>
<path d="M60 111h37"></path>
<path d="M415.5 111h37"></path>
<g class="non-terminal ">
<path d="M97 111h0"></path>
<path d="M134 111h0"></path>
<rect x="97" y="100" width="37" height="22"></rect>
<text x="115.5" y="115">WS</text>
</g>
<path d="M134 111h10"></path>
<path d="M144 111h10"></path>
<g class="terminal ">
<path d="M154 111h0"></path>
<path d="M191 111h0"></path>
<rect x="154" y="100" width="37" height="22" rx="10" ry="10"></rect>
<text x="172.5" y="115">-></text>
</g>
<path d="M191 111h10"></path>
<path d="M201 111h10"></path>
<g class="non-terminal ">
<path d="M211 111h0"></path>
<path d="M248 111h0"></path>
<rect x="211" y="100" width="37" height="22"></rect>
<text x="229.5" y="115">WS</text>
</g>
<path d="M248 111h10"></path>
<path d="M258 111h10"></path>
<g class="non-terminal ">
<path d="M268 111h0"></path>
<path d="M415.5 111h0"></path>
<rect x="268" y="100" width="147.5" height="22"></rect>
<text x="341.75" y="115">Type Expression</text>
</g>
</g>
<path d="M452.5 111a10 10 0 0 1 10 10v0a10 10 0 0 1 -10 10h-392.5a10 10 0 0 0 -10 10v8a10 10 0 0 0 10 10"></path>
<g>
<path d="M60 159h0"></path>
<path d="M452.5 159h0"></path>
<path d="M60 159a10 10 0 0 0 10 -10v0a10 10 0 0 1 10 -10"></path>
<g>
<path d="M80 139h352.5"></path>
</g>
<path d="M432.5 139a10 10 0 0 1 10 10v0a10 10 0 0 0 10 10"></path>
<path d="M60 159h20"></path>
<g>
<path d="M80 159h0"></path>
<path d="M432.5 159h0"></path>
<g class="non-terminal ">
<path d="M80 159h0"></path>
<path d="M117 159h0"></path>
<rect x="80" y="148" width="37" height="22"></rect>
<text x="98.5" y="163">WS</text>
</g>
<path d="M117 159h10"></path>
<path d="M127 159h10"></path>
<g class="terminal ">
<path d="M137 159h0"></path>
<path d="M208 159h0"></path>
<rect x="137" y="148" width="71" height="22" rx="10" ry="10"></rect>
<text x="172.5" y="163">throws</text>
</g>
<path d="M208 159h10"></path>
<path d="M218 159h10"></path>
<g class="non-terminal ">
<path d="M228 159h0"></path>
<path d="M265 159h0"></path>
<rect x="228" y="148" width="37" height="22"></rect>
<text x="246.5" y="163">WS</text>
</g>
<path d="M265 159h10"></path>
<path d="M275 159h10"></path>
<g class="non-terminal ">
<path d="M285 159h0"></path>
<path d="M432.5 159h0"></path>
<rect x="285" y="148" width="147.5" height="22"></rect>
<text x="358.75" y="163">Type Expression</text>
</g>
</g>
<path d="M432.5 159h20"></path>
</g>
<path d="M452.5 159h10"></path>
<path d="M462.5 159h0"></path>
</g>
<path d="M462.5 159h10"></path>
<path d="M 472.5 159 h 20 m -10 -10 v 20 m 10 -20 v 20"></path>
</g>
<style>
	svg {
		background-color: hsl(30,20%,95%);
	}
	path {
		stroke-width: 3;
		stroke: black;
		fill: rgba(0,0,0,0);
	}
	text {
		font: bold 14px monospace;
		text-anchor: middle;
		white-space: pre;
	}
	text.diagram-text {
		font-size: 12px;
	}
	text.diagram-arrow {
		font-size: 16px;
	}
	text.label {
		text-anchor: start;
	}
	text.comment {
		font: italic 12px monospace;
	}
	g.non-terminal text {
		/&#42;font-style: italic;&#42;/
	}
	rect {
		stroke-width: 3;
		stroke: black;
		fill: hsl(120,100%,90%);
	}
	rect.group-box {
		stroke: gray;
		stroke-dasharray: 10 5;
		fill: none;
	}
	path.diagram-text {
		stroke-width: 3;
		stroke: black;
		fill: white;
		cursor: help;
	}
	g.diagram-text:hover path.diagram-text {
		fill: #eee;
	}</style>
</svg>
