<svg class="railroad-diagram" width="450" height="178" viewBox="0 0 450 178" xmlns="http://www.w3.org/2000/svg" xmlns:xlink="http://www.w3.org/1999/xlink">
<g transform="translate(.5 .5)">
<g>
<path d="M20 21v20m10 -20v20m-10 -10h20"></path>
</g>
<path d="M40 31h10"></path>
<g>
<path d="M50 31h0"></path>
<path d="M50 31h10"></path>
<g>
<path d="M60 31h10"></path>
<path d="M380 31h10"></path>
<g class="terminal ">
<path d="M70 31h0"></path>
<path d="M141 31h0"></path>
<rect x="70" y="20" width="71" height="22" rx="10" ry="10"></rect>
<text x="105.5" y="35">struct</text>
</g>
<path d="M141 31h10"></path>
<path d="M151 31h10"></path>
<g class="non-terminal ">
<path d="M161 31h0"></path>
<path d="M198 31h0"></path>
<rect x="161" y="20" width="37" height="22"></rect>
<text x="179.5" y="35">WS</text>
</g>
<path d="M198 31h10"></path>
<path d="M208 31h10"></path>
<g class="non-terminal ">
<path d="M218 31h0"></path>
<path d="M323 31h0"></path>
<rect x="218" y="20" width="105" height="22"></rect>
<text x="270.5" y="35">Identifier</text>
</g>
<path d="M323 31h10"></path>
<path d="M333 31h10"></path>
<g class="non-terminal ">
<path d="M343 31h0"></path>
<path d="M380 31h0"></path>
<rect x="343" y="20" width="37" height="22"></rect>
<text x="361.5" y="35">WS</text>
</g>
</g>
<path d="M390 31a10 10 0 0 1 10 10v0a10 10 0 0 1 -10 10h-330a10 10 0 0 0 -10 10v8a10 10 0 0 0 10 10"></path>
<g>
<path d="M60 79h15.5"></path>
<path d="M374.5 79h15.5"></path>
<g class="terminal ">
<path d="M75.5 79h0"></path>
<path d="M104 79h0"></path>
<rect x="75.5" y="68" width="28.5" height="22" rx="10" ry="10"></rect>
<text x="89.75" y="83">{</text>
</g>
<path d="M104 79h10"></path>
<g>
<path d="M114 79h0"></path>
<path d="M336 79h0"></path>
<path d="M114 79a10 10 0 0 0 10 -10v0a10 10 0 0 1 10 -10"></path>
<g>
<path d="M134 59h182"></path>
</g>
<path d="M316 59a10 10 0 0 1 10 10v0a10 10 0 0 0 10 10"></path>
<path d="M114 79h20"></path>
<g>
<path d="M134 79h0"></path>
<path d="M316 79h0"></path>
<path d="M134 79h10"></path>
<g>
<path d="M144 79h0"></path>
<path d="M306 79h0"></path>
<path d="M144 79h20"></path>
<g class="non-terminal ">
<path d="M164 79h42.5"></path>
<path d="M243.5 79h42.5"></path>
<rect x="206.5" y="68" width="37" height="22"></rect>
<text x="225" y="83">WS</text>
</g>
<path d="M286 79h20"></path>
<path d="M144 79a10 10 0 0 1 10 10v10a10 10 0 0 0 10 10"></path>
<g class="non-terminal ">
<path d="M164 109h12.75"></path>
<path d="M273.25 109h12.75"></path>
<rect x="176.75" y="98" width="96.5" height="22"></rect>
<text x="225" y="113">Attribute</text>
</g>
<path d="M286 109a10 10 0 0 0 10 -10v-10a10 10 0 0 1 10 -10"></path>
<path d="M144 79a10 10 0 0 1 10 10v40a10 10 0 0 0 10 10"></path>
<g class="non-terminal ">
<path d="M164 139h0"></path>
<path d="M286 139h0"></path>
<rect x="164" y="128" width="122" height="22"></rect>
<text x="225" y="143">Struct Field</text>
</g>
<path d="M286 139a10 10 0 0 0 10 -10v-40a10 10 0 0 1 10 -10"></path>
</g>
<path d="M306 79h10"></path>
<path d="M144 79a10 10 0 0 0 -10 10v59a10 10 0 0 0 10 10"></path>
<g>
<path d="M144 158h162"></path>
</g>
<path d="M306 158a10 10 0 0 0 10 -10v-59a10 10 0 0 0 -10 -10"></path>
</g>
<path d="M316 79h20"></path>
</g>
<path d="M336 79h10"></path>
<g class="terminal ">
<path d="M346 79h0"></path>
<path d="M374.5 79h0"></path>
<rect x="346" y="68" width="28.5" height="22" rx="10" ry="10"></rect>
<text x="360.25" y="83">}</text>
</g>
</g>
<path d="M390 79h10"></path>
<path d="M400 79h0"></path>
</g>
<path d="M400 79h10"></path>
<path d="M 410 79 h 20 m -10 -10 v 20 m 10 -20 v 20"></path>
</g>
<style>
	svg {
		background-color: hsl(30,20%,95%);
	}
	path {
		stroke-width: 3;
		stroke: black;
		fill: rgba(0,0,0,0);
	}
	text {
		font: bold 14px monospace;
		text-anchor: middle;
		white-space: pre;
	}
	text.diagram-text {
		font-size: 12px;
	}
	text.diagram-arrow {
		font-size: 16px;
	}
	text.label {
		text-anchor: start;
	}
	text.comment {
		font: italic 12px monospace;
	}
	g.non-terminal text {
		/&#42;font-style: italic;&#42;/
	}
	rect {
		stroke-width: 3;
		stroke: black;
		fill: hsl(120,100%,90%);
	}
	rect.group-box {
		stroke: gray;
		stroke-dasharray: 10 5;
		fill: none;
	}
	path.diagram-text {
		stroke-width: 3;
		stroke: black;
		fill: white;
		cursor: help;
	}
	g.diagram-text:hover path.diagram-text {
		fill: #eee;
	}</style>
</svg>
