<svg class="railroad-diagram" width="477" height="79" viewBox="0 0 477 79" xmlns="http://www.w3.org/2000/svg" xmlns:xlink="http://www.w3.org/1999/xlink">
<g transform="translate(.5 .5)">
<g>
<path d="M20 38v20m10 -20v20m-10 -10h20"></path>
</g>
<path d="M40 48h10"></path>
<g>
<path d="M50 48h0"></path>
<path d="M427 48h0"></path>
<g class="non-terminal ">
<path d="M50 48h0"></path>
<path d="M155 48h0"></path>
<rect x="50" y="37" width="105" height="22"></rect>
<text x="102.5" y="52">Identifier</text>
</g>
<path d="M155 48h10"></path>
<g>
<path d="M165 48h0"></path>
<path d="M427 48h0"></path>
<path d="M165 48a10 10 0 0 0 10 -10v-8a10 10 0 0 1 10 -10"></path>
<g>
<path d="M185 20h222"></path>
</g>
<path d="M407 20a10 10 0 0 1 10 10v8a10 10 0 0 0 10 10"></path>
<path d="M165 48h20"></path>
<g>
<path d="M185 48h0"></path>
<path d="M407 48h0"></path>
<g class="terminal ">
<path d="M185 48h0"></path>
<path d="M213.5 48h0"></path>
<rect x="185" y="37" width="28.5" height="22" rx="10" ry="10"></rect>
<text x="199.25" y="52">&#91;</text>
</g>
<path d="M213.5 48h10"></path>
<g>
<path d="M223.5 48h0"></path>
<path d="M368.5 48h0"></path>
<path d="M223.5 48a10 10 0 0 0 10 -10v0a10 10 0 0 1 10 -10"></path>
<g>
<path d="M243.5 28h105"></path>
</g>
<path d="M348.5 28a10 10 0 0 1 10 10v0a10 10 0 0 0 10 10"></path>
<path d="M223.5 48h20"></path>
<g class="non-terminal ">
<path d="M243.5 48h0"></path>
<path d="M348.5 48h0"></path>
<rect x="243.5" y="37" width="105" height="22"></rect>
<text x="296" y="52">Identifier</text>
</g>
<path d="M348.5 48h20"></path>
</g>
<path d="M368.5 48h10"></path>
<g class="terminal ">
<path d="M378.5 48h0"></path>
<path d="M407 48h0"></path>
<rect x="378.5" y="37" width="28.5" height="22" rx="10" ry="10"></rect>
<text x="392.75" y="52">&#93;</text>
</g>
</g>
<path d="M407 48h20"></path>
</g>
</g>
<path d="M427 48h10"></path>
<path d="M 437 48 h 20 m -10 -10 v 20 m 10 -20 v 20"></path>
</g>
<style>
	svg {
		background-color: hsl(30,20%,95%);
	}
	path {
		stroke-width: 3;
		stroke: black;
		fill: rgba(0,0,0,0);
	}
	text {
		font: bold 14px monospace;
		text-anchor: middle;
		white-space: pre;
	}
	text.diagram-text {
		font-size: 12px;
	}
	text.diagram-arrow {
		font-size: 16px;
	}
	text.label {
		text-anchor: start;
	}
	text.comment {
		font: italic 12px monospace;
	}
	g.non-terminal text {
		/&#42;font-style: italic;&#42;/
	}
	rect {
		stroke-width: 3;
		stroke: black;
		fill: hsl(120,100%,90%);
	}
	rect.group-box {
		stroke: gray;
		stroke-dasharray: 10 5;
		fill: none;
	}
	path.diagram-text {
		stroke-width: 3;
		stroke: black;
		fill: white;
		cursor: help;
	}
	g.diagram-text:hover path.diagram-text {
		fill: #eee;
	}</style>
</svg>
