<svg class="railroad-diagram" width="441.5" height="178" viewBox="0 0 441.5 178" xmlns="http://www.w3.org/2000/svg" xmlns:xlink="http://www.w3.org/1999/xlink">
<g transform="translate(.5 .5)">
<g>
<path d="M20 21v20m10 -20v20m-10 -10h20"></path>
</g>
<path d="M40 31h10"></path>
<g>
<path d="M50 31h0"></path>
<path d="M50 31h10"></path>
<g>
<path d="M60 31h10"></path>
<path d="M371.5 31h10"></path>
<g class="terminal ">
<path d="M70 31h0"></path>
<path d="M132.5 31h0"></path>
<rect x="70" y="20" width="62.5" height="22" rx="10" ry="10"></rect>
<text x="101.25" y="35">union</text>
</g>
<path d="M132.5 31h10"></path>
<path d="M142.5 31h10"></path>
<g class="non-terminal ">
<path d="M152.5 31h0"></path>
<path d="M189.5 31h0"></path>
<rect x="152.5" y="20" width="37" height="22"></rect>
<text x="171" y="35">WS</text>
</g>
<path d="M189.5 31h10"></path>
<path d="M199.5 31h10"></path>
<g class="non-terminal ">
<path d="M209.5 31h0"></path>
<path d="M314.5 31h0"></path>
<rect x="209.5" y="20" width="105" height="22"></rect>
<text x="262" y="35">Identifier</text>
</g>
<path d="M314.5 31h10"></path>
<path d="M324.5 31h10"></path>
<g class="non-terminal ">
<path d="M334.5 31h0"></path>
<path d="M371.5 31h0"></path>
<rect x="334.5" y="20" width="37" height="22"></rect>
<text x="353" y="35">WS</text>
</g>
</g>
<path d="M381.5 31a10 10 0 0 1 10 10v0a10 10 0 0 1 -10 10h-321.5a10 10 0 0 0 -10 10v8a10 10 0 0 0 10 10"></path>
<g>
<path d="M60 79h19.75"></path>
<path d="M361.75 79h19.75"></path>
<g class="terminal ">
<path d="M79.75 79h0"></path>
<path d="M108.25 79h0"></path>
<rect x="79.75" y="68" width="28.5" height="22" rx="10" ry="10"></rect>
<text x="94" y="83">{</text>
</g>
<path d="M108.25 79h10"></path>
<g>
<path d="M118.25 79h0"></path>
<path d="M323.25 79h0"></path>
<path d="M118.25 79a10 10 0 0 0 10 -10v0a10 10 0 0 1 10 -10"></path>
<g>
<path d="M138.25 59h165"></path>
</g>
<path d="M303.25 59a10 10 0 0 1 10 10v0a10 10 0 0 0 10 10"></path>
<path d="M118.25 79h20"></path>
<g>
<path d="M138.25 79h0"></path>
<path d="M303.25 79h0"></path>
<path d="M138.25 79h10"></path>
<g>
<path d="M148.25 79h0"></path>
<path d="M293.25 79h0"></path>
<path d="M148.25 79h20"></path>
<g class="non-terminal ">
<path d="M168.25 79h34"></path>
<path d="M239.25 79h34"></path>
<rect x="202.25" y="68" width="37" height="22"></rect>
<text x="220.75" y="83">WS</text>
</g>
<path d="M273.25 79h20"></path>
<path d="M148.25 79a10 10 0 0 1 10 10v10a10 10 0 0 0 10 10"></path>
<g class="non-terminal ">
<path d="M168.25 109h4.25"></path>
<path d="M269 109h4.25"></path>
<rect x="172.5" y="98" width="96.5" height="22"></rect>
<text x="220.75" y="113">Attribute</text>
</g>
<path d="M273.25 109a10 10 0 0 0 10 -10v-10a10 10 0 0 1 10 -10"></path>
<path d="M148.25 79a10 10 0 0 1 10 10v40a10 10 0 0 0 10 10"></path>
<g class="non-terminal ">
<path d="M168.25 139h0"></path>
<path d="M273.25 139h0"></path>
<rect x="168.25" y="128" width="105" height="22"></rect>
<text x="220.75" y="143">Union Item</text>
</g>
<path d="M273.25 139a10 10 0 0 0 10 -10v-40a10 10 0 0 1 10 -10"></path>
</g>
<path d="M293.25 79h10"></path>
<path d="M148.25 79a10 10 0 0 0 -10 10v59a10 10 0 0 0 10 10"></path>
<g>
<path d="M148.25 158h145"></path>
</g>
<path d="M293.25 158a10 10 0 0 0 10 -10v-59a10 10 0 0 0 -10 -10"></path>
</g>
<path d="M303.25 79h20"></path>
</g>
<path d="M323.25 79h10"></path>
<g class="terminal ">
<path d="M333.25 79h0"></path>
<path d="M361.75 79h0"></path>
<rect x="333.25" y="68" width="28.5" height="22" rx="10" ry="10"></rect>
<text x="347.5" y="83">}</text>
</g>
</g>
<path d="M381.5 79h10"></path>
<path d="M391.5 79h0"></path>
</g>
<path d="M391.5 79h10"></path>
<path d="M 401.5 79 h 20 m -10 -10 v 20 m 10 -20 v 20"></path>
</g>
<style>
	svg {
		background-color: hsl(30,20%,95%);
	}
	path {
		stroke-width: 3;
		stroke: black;
		fill: rgba(0,0,0,0);
	}
	text {
		font: bold 14px monospace;
		text-anchor: middle;
		white-space: pre;
	}
	text.diagram-text {
		font-size: 12px;
	}
	text.diagram-arrow {
		font-size: 16px;
	}
	text.label {
		text-anchor: start;
	}
	text.comment {
		font: italic 12px monospace;
	}
	g.non-terminal text {
		/&#42;font-style: italic;&#42;/
	}
	rect {
		stroke-width: 3;
		stroke: black;
		fill: hsl(120,100%,90%);
	}
	rect.group-box {
		stroke: gray;
		stroke-dasharray: 10 5;
		fill: none;
	}
	path.diagram-text {
		stroke-width: 3;
		stroke: black;
		fill: white;
		cursor: help;
	}
	g.diagram-text:hover path.diagram-text {
		fill: #eee;
	}</style>
</svg>
